<svg width="35" height="35" viewBox="0 0 35 35" fill="none" xmlns="http://www.w3.org/2000/svg">
<circle cx="17.5" cy="17.5" r="17.5" fill="#004B27"/>
<path d="M18.2143 8.87109C20.9416 8.87109 21.2647 8.88169 22.3417 8.93165C23.3376 8.97781 23.8785 9.14699 24.2384 9.2892C24.7152 9.47759 25.0554 9.70261 25.4128 10.066C25.7703 10.4294 25.9916 10.7753 26.1769 11.2601C26.3168 11.626 26.4832 12.1758 26.5286 13.1883C26.5777 14.2833 26.5882 14.6118 26.5882 17.3846C26.5882 20.1574 26.5777 20.4858 26.5286 21.5808C26.4832 22.5933 26.3168 23.1432 26.1769 23.5091C25.9916 23.9938 25.7703 24.3398 25.4129 24.7031C25.0554 25.0665 24.7152 25.2916 24.2384 25.48C23.8785 25.6222 23.3376 25.7913 22.3417 25.8375C21.2648 25.8875 20.9418 25.8981 18.2143 25.8981C15.4868 25.8981 15.1638 25.8875 14.0868 25.8375C13.091 25.7913 12.5501 25.6222 12.1902 25.48C11.7134 25.2916 11.3732 25.0665 11.0157 24.7031C10.6583 24.3398 10.437 23.9938 10.2517 23.5091C10.1118 23.1432 9.94538 22.5933 9.89997 21.5808C9.85083 20.4858 9.84041 20.1574 9.84041 17.3846C9.84041 14.6118 9.85083 14.2833 9.89997 13.1883C9.94538 12.1758 10.1118 11.626 10.2517 11.2601C10.437 10.7753 10.6583 10.4294 11.0157 10.066C11.3732 9.70261 11.7134 9.47759 12.1902 9.2892C12.5501 9.14699 13.091 8.97781 14.0868 8.93165C15.1639 8.88169 15.487 8.87109 18.2143 8.87109ZM18.2143 7C15.4403 7 15.0924 7.01195 14.0029 7.06249C12.9158 7.11291 12.1732 7.28847 11.5235 7.54516C10.8519 7.81054 10.2822 8.16562 9.71435 8.74293C9.14651 9.32028 8.79725 9.89941 8.53626 10.5823C8.28374 11.2428 8.11105 11.9977 8.06147 13.103C8.01176 14.2107 8 14.5643 8 17.3846C8 20.2049 8.01176 20.5585 8.06147 21.6661C8.11105 22.7714 8.28374 23.5263 8.53626 24.1869C8.79725 24.8698 9.14651 25.4489 9.71435 26.0262C10.2822 26.6035 10.8519 26.9586 11.5235 27.224C12.1732 27.4807 12.9158 27.6563 14.0029 27.7067C15.0924 27.7572 15.4403 27.7692 18.2143 27.7692C20.9883 27.7692 21.3362 27.7572 22.4256 27.7067C23.5128 27.6563 24.2553 27.4807 24.905 27.224C25.5767 26.9586 26.1463 26.6035 26.7142 26.0262C27.2821 25.4489 27.6313 24.8698 27.8924 24.1869C28.1448 23.5263 28.3175 22.7714 28.3671 21.6661C28.4168 20.5585 28.4286 20.2049 28.4286 17.3846C28.4286 14.5643 28.4168 14.2107 28.3671 13.103C28.3175 11.9977 28.1448 11.2428 27.8924 10.5823C27.6313 9.89941 27.2821 9.32028 26.7142 8.74293C26.1463 8.16562 25.5767 7.81054 24.905 7.54516C24.2553 7.28847 23.5128 7.11291 22.4256 7.06249C21.3362 7.01195 20.9883 7 18.2143 7Z" fill="white"/>
<path d="M18.2187 12.0566C15.3218 12.0566 12.9735 14.4441 12.9735 17.3892C12.9735 20.3344 15.3218 22.7219 18.2187 22.7219C21.1155 22.7219 23.4639 20.3344 23.4639 17.3892C23.4639 14.4441 21.1155 12.0566 18.2187 12.0566ZM18.2187 20.8508C16.3383 20.8508 14.8139 19.301 14.8139 17.3892C14.8139 15.4775 16.3383 13.9277 18.2187 13.9277C20.0991 13.9277 21.6234 15.4775 21.6234 17.3892C21.6234 19.301 20.0991 20.8508 18.2187 20.8508Z" fill="white"/>
<path d="M24.8971 11.8429C24.8971 12.5311 24.3483 13.089 23.6714 13.089C22.9945 13.089 22.4457 12.5311 22.4457 11.8429C22.4457 11.1546 22.9945 10.5967 23.6714 10.5967C24.3483 10.5967 24.8971 11.1546 24.8971 11.8429Z" fill="white"/>
</svg>
