<svg width="35" height="35" viewBox="0 0 35 35" fill="none" xmlns="http://www.w3.org/2000/svg">
<circle cx="17.5" cy="17.5" r="17.5" fill="#004B27"/>
<path fill-rule="evenodd" clip-rule="evenodd" d="M13.0642 9.97644C13.0642 11.0539 12.2573 11.9259 10.9953 11.9259C9.78255 11.9259 8.97559 11.0539 9.00056 9.97644C8.97559 8.84659 9.78253 8 11.0195 8C12.2572 8 13.04 8.84659 13.0642 9.97644ZM9.10202 26.0165V13.466H12.9386V26.0157H9.10202V26.0165Z" fill="white"/>
<path fill-rule="evenodd" clip-rule="evenodd" d="M16.0134 17.4719C16.0134 15.9064 15.9627 14.5719 15.912 13.4682H19.2444L19.4215 15.1876H19.4972C20.0022 14.3918 21.2641 13.1865 23.3088 13.1865C25.8327 13.1865 27.726 14.8805 27.726 18.5747V26.0187H23.8894V19.0635C23.8894 17.4457 23.3346 16.3428 21.9462 16.3428C20.8856 16.3428 20.255 17.087 20.003 17.8051C19.9015 18.0622 19.8516 18.4208 19.8516 18.781V26.0187H16.015V17.4719H16.0134Z" fill="white"/>
</svg>
